<svg xmlns="http://www.w3.org/2000/svg" xmlns:xlink="http://www.w3.org/1999/xlink" xmlns:lucid="lucid" width="1236.1" height="680"><g transform="translate(-183.9 -140)" lucid:page-tab-id="0_0"><path d="M0 0h1760v1360H0z" fill="#fff"/><path d="M543.95 464.03H531c-.65 0-1.26-.38-1.52-.98l-18.14-38.9h-7.32c-.9 0-1.7-.75-1.7-1.68v-11.22c0-.92.8-1.68 1.7-1.68h16.15c.7 0 1.26.38 1.52.98l18.1 38.9h4.15c.9 0 1.68.75 1.68 1.73v11.17c0 .92-.78 1.68-1.68 1.68zm-11.9-3.43h10.16v-7.73h-3.5c-.64 0-1.25-.38-1.5-.98l-18.07-38.96h-13.38v7.8h6.67c.7 0 1.3.37 1.56.97z" stroke="#fff" stroke-opacity="0" fill="#d86613"/><path d="M508.8 464.03H495c-.9 0-1.68-.77-1.68-1.7 0-.28.05-.48.17-.72l14.45-30.26c.3-.6.87-.97 1.53-.97.67 0 1.24.33 1.54.94l6.9 14.32c.23.47.23.97 0 1.45l-7.55 16c-.3.6-.87.96-1.54.96zm-11.1-3.4h10.02l6.8-14.27-5.1-10.37z" stroke="#fff" stroke-opacity="0" fill="#d86613"/><path d="M520 480c-22.08 0-40-17.92-40-40s17.92-40 40-40 40 17.92 40 40-17.92 40-40 40zm0-76.56c-20.24 0-36.56 16.32-36.56 36.56 0 20.24 16.32 36.56 36.56 36.56 20.24 0 36.56-16.32 36.56-36.56 0-20.24-16.32-36.56-36.56-36.56z" stroke="#fff" stroke-opacity="0" fill="#d86613"/><use xlink:href="#a" transform="matrix(1,0,0,1,450,489) translate(-28.82499999999999 14.4)"/><path d="M262.38 473.62h-16c-.94 0-1.7-.77-1.7-1.7v-35.1c0-.94.76-1.7 1.7-1.7h16c.95 0 1.7.76 1.7 1.7v35.1c0 .93-.75 1.7-1.7 1.7zm-14.28-3.4h12.57V438.5H248.1zM287.94 473.62h-15.98c-.95 0-1.7-.77-1.7-1.7v-27.13c0-.96.75-1.72 1.7-1.72h15.98c.95 0 1.7.76 1.7 1.7v27.13c0 .95-.75 1.72-1.7 1.72zm-14.28-3.4h12.57v-23.75h-12.57zM240 476.6h79.9v3.4H240v-3.4zM313.5 473.62h-15.98c-.95 0-1.7-.78-1.7-1.7v-39.9c0-.92.77-1.7 1.7-1.7.25 0 .47.04.7.13 4.83 2.16 9.76 2.16 14.6 0 .84-.35 1.85 0 2.24.86.1.27.15.45.15.7v39.93c0 .9-.75 1.7-1.7 1.7zm-14.27-3.42h12.57v-35.73c-4.3 1.3-8.28 1.3-12.57 0zM305.5 428.94c-7.98 0-14.47-6.5-14.47-14.47 0-8 6.5-14.47 14.48-14.47 8 0 14.5 6.48 14.5 14.47 0 7.98-6.5 14.47-14.5 14.47zm0-25.53c-6.1 0-11.05 4.96-11.05 11.07 0 6.1 4.95 11.05 11.06 11.05 6.13 0 11.08-4.95 11.08-11.05 0-6.1-4.95-11.06-11.07-11.06z" stroke="#fff" stroke-opacity="0" fill="#cd2264"/><path d="M307.22 417.74h-9.67v-3.4h6.26v-7.85h3.42v11.24z" stroke="#fff" stroke-opacity="0" fill="#cd2264"/><use xlink:href="#b" transform="matrix(1,0,0,1,210,489) translate(-4.099999999999994 14.4)"/><path d="M341 440h100.5M341.03 440H340" stroke="#cd2264" stroke-width="2" fill="none"/><path d="M456.76 440l-14.26 4.64v-9.28z" stroke="#cd2264" stroke-width="2" fill="#cd2264"/><use xlink:href="#c" transform="matrix(1,0,0,1,344.43170409505973,414.40000000000003) translate(0 14.4)"/><use xlink:href="#d" transform="matrix(1,0,0,1,344.43170409505973,414.40000000000003) translate(41.9 14.4)"/><path d="M1016.48 246.83c-9.13-.03-16.48-7.45-16.42-16.55.07-9.1 7.4-16.46 16.55-16.43 6.85.04 12.6 3.96 15.15 10.3h2.68l3.4-3.4c.7-.66 1.72-.66 2.42 0l3.38 3.4h1.15l3.4-3.4c.7-.66 1.78-.66 2.42 0l3.38 3.4h3.13c.46 0 .84.13 1.16.42l5.12 4.5c.7.6.76 1.67.2 2.4l-3.9 4.48c-.33.4-.78.6-1.3.6h-26.7c-2.55 6.4-8.36 10.32-15.2 10.28zm0-29.55c-5.8 0-10.73 3.57-12.46 9.1-2.23 6.9 1.6 14.25 8.44 16.43 6.9 2.22 14.24-1.57 16.42-8.47.25-.75.9-1.22 1.72-1.18h26.77l2.24-2.64-3.38-2.93h-3.2c-.5 0-.9-.2-1.2-.52l-2.7-2.64-2.6 2.65c-.33.33-.78.52-1.22.52h-2.56c-.45 0-.9-.2-1.2-.52l-2.63-2.64-2.68 2.65c-.32.33-.7.52-1.2.52h-4.55c-.76.04-1.47-.46-1.66-1.18-1.7-5.52-6.57-9.08-12.32-9.12zm-4.53 19.26c-3.4 0-6.2-2.77-6.2-6.2s2.8-6.2 6.2-6.2c3.45 0 6.2 2.77 6.2 6.2s-2.75 6.2-6.2 6.2zm0-8.97c-1.54 0-2.8 1.26-2.75 2.8 0 1.56 1.2 2.8 2.8 2.78 1.54 0 2.76-1.26 2.76-2.8 0-1.56-1.28-2.78-2.8-2.78zM1063.5 217.27c-6.8.03-12.67-3.86-15.2-10.23h-2.7l-3.36 3.43c-.64.66-1.72.66-2.42 0l-3.38-3.43h-1.14l-3.44 3.43c-.64.66-1.72.66-2.36 0l-3.44-3.43h-2.93c-.44 0-.82-.13-1.14-.43l-5.1-4.47c-.7-.63-.77-1.68-.2-2.4l3.9-4.5c.3-.4.75-.6 1.26-.6h26.43c3.43-8.43 13.04-12.5 21.45-9.06 8.4 3.43 12.48 13.03 9.04 21.47-2.56 6.37-8.35 10.26-15.17 10.3zm-18.6-13.62h4.6c.76-.04 1.46.42 1.72 1.18 1.27 4.16 4.26 7.13 8.4 8.48 6.88 2.22 14.2-1.57 16.43-8.47 2.17-6.9-1.6-14.25-8.47-16.46-6.88-2.17-14.2 1.62-16.36 8.48-.26.76-.96 1.22-1.72 1.2h-26.88l-2.22 2.63 3.37 2.97h3.25c.44 0 .83.16 1.2.5l2.62 2.63 2.67-2.64c.33-.33.7-.5 1.22-.5h2.55c.45 0 .83.17 1.2.5l2.62 2.64 2.67-2.64c.3-.36.7-.53 1.14-.56zm23.13 3.4c-3.44 0-6.18-2.78-6.18-6.2 0-3.44 2.74-6.2 6.18-6.2 3.44 0 6.18 2.76 6.18 6.2 0 3.4-2.8 6.16-6.17 6.16zm0-9c-1.53 0-2.8 1.24-2.8 2.8 0 1.54 1.27 2.8 2.8 2.8 1.53 0 2.8-1.26 2.8-2.8 0-1.6-1.27-2.84-2.8-2.84z" stroke="#fff" stroke-opacity="0" fill="#d6242d"/><path d="M1078.3 255.65h-76.62c-.88 0-1.68-.77-1.68-1.7v-8h3.44v6.3h73.1v-6.3h3.44v8c0 .93-.8 1.7-1.68 1.7z" stroke="#fff" stroke-opacity="0" fill="#d6242d"/><use xlink:href="#e" transform="matrix(1,0,0,1,970,264.65) translate(30.549999999999997 14.4)"/><use xlink:href="#f" transform="matrix(1,0,0,1,970,264.65) translate(77.5 14.4)"/><use xlink:href="#g" transform="matrix(1,0,0,1,970,264.65) translate(26.574999999999996 36)"/><path d="M875.28 240.02H840v-5.5c0-13.54 8.9-24.88 22.1-28.1l.62-.16.63.3c4.2 2.27 8.84 2.27 13.1 0l.56-.3.64.17c5.97 1.46 10.63 4.26 14.7 8.78l-2.6 2.37c-3.46-3.8-7.4-6.17-12.36-7.52-4.98 2.4-10.2 2.4-15.18 0-11.26 3.07-18.74 12.86-18.74 24.47v2h31.77z" stroke="#fff" stroke-opacity="0" fill="#d6242d"/><path d="M869.86 211.67c-2.8 0-5.18-.6-7.63-1.93-7.72-4.18-10.55-13.8-6.35-21.47 4.2-7.7 13.85-10.52 21.54-6.34 7.72 4.18 10.55 13.8 6.36 21.5-1.53 2.8-3.53 4.8-6.36 6.3-2.44 1.34-4.8 1.94-7.56 1.94zm0-27.7c-4.67-.1-8.67 2.24-10.9 6.32-3.18 5.85-.98 13.17 4.9 16.36 3.8 2.03 8.03 2.03 11.85 0 4.04-2.18 6.36-6.1 6.33-10.7-.03-6.68-5.5-12.03-12.17-12zM897.22 260l-18.78-10.8v-21.63l18.78-10.82L916 227.57v21.62zm-15.25-12.84l15.25 8.77 15.25-8.77v-17.6l-15.25-8.83-15.25 8.83z" stroke="#fff" stroke-opacity="0" fill="#d6242d"/><path d="M897.22 240.4l-17.9-10.3 1.76-3.03 16.14 9.27 16.14-9.27 1.76 3.04-17.9 10.3z" stroke="#fff" stroke-opacity="0" fill="#d6242d"/><path d="M895.46 238.4H899v19.58h-3.54v-19.6z" stroke="#fff" stroke-opacity="0" fill="#d6242d"/><use xlink:href="#h" transform="matrix(1,0,0,1,810,269) translate(30.574999999999996 14.4)"/><use xlink:href="#i" transform="matrix(1,0,0,1,810,269) translate(67.525 14.4)"/><path d="M800 160h320v280H800z" fill-opacity="0"/><path d="M812 160h8m8 0h8m8 0h8m8 0h8m8 0h8m8 0h8m8 0h8m8 0h8m8 0h8m8 0h8m8 0h8m8 0h8m8 0h8m8 0h8m8 0h8m8 0h8m8 0h8m8 0h8m8 0h8m8 0h4v3.9m0 7.77v7.77m0 7.78V195m0 7.78v7.78m0 7.77v7.78m0 7.8v7.77m0 7.77v7.78m0 7.78v7.78m0 7.78v7.77m0 7.78v7.8m0 7.77v7.77m0 7.78V335m0 7.78v7.78m0 7.77v7.78m0 7.8v7.77m0 7.77v7.78m0 7.78v7.78m0 7.78v7.77m0 7.78v3.9h-4m-8 0h-8m-8 0h-8m-8 0h-8m-8 0h-8m-8 0h-8m-8 0h-8m-8 0h-8m-8 0h-8m-8 0h-8m-8 0h-8m-8 0h-8m-8 0h-8m-8 0h-8m-8 0h-8m-8 0h-8m-8 0h-8m-8 0h-8m-8 0h-8m-8 0h-8m-8 0h-4v-3.9m0-7.77v-7.77m0-7.78V405m0-7.78v-7.78m0-7.77v-7.78m0-7.8v-7.77m0-7.77v-7.78m0-7.78v-7.78m0-7.78v-7.77m0-7.78v-7.8m0-7.77v-7.77m0-7.78V265m0-7.78v-7.78m0-7.77v-7.78m0-7.8v-7.77m0-7.77v-7.78m0-7.78v-7.78m0-7.78v-7.77m0-7.78V160h4" stroke="#5a6c86" stroke-width="2" fill="none"/><path d="M520 379V240h261.5M520 378.97V380" stroke="#d86613" stroke-width="2" fill="none"/><path d="M796.76 240l-14.26 4.64v-9.28z" stroke="#d86613" stroke-width="2" fill="#d86613"/><use xlink:href="#j" transform="matrix(1,0,0,1,559.0907076414303,192.8) translate(23.004999999999995 14.4)"/><use xlink:href="#k" transform="matrix(1,0,0,1,559.0907076414303,192.8) translate(63.955 14.4)"/><use xlink:href="#l" transform="matrix(1,0,0,1,559.0907076414303,192.8) translate(0.0049999999999954525 36)"/><use xlink:href="#m" transform="matrix(1,0,0,1,559.0907076414303,192.8) translate(86.955 36)"/><path d="M916 540h80v80h-80v-80z" stroke="#fff" stroke-opacity="0" stroke-width="2" fill="#3b48cc"/><path d="M956 553.33c-5.8 0-10.82 1.6-15.57 5.03-11.94 8.57-14.66 25.25-6.08 37.2l1.7-1.26c-7.88-10.98-5.37-26.3 5.6-34.2 11.04-7.95 26.34-5.46 34.3 5.56 3.13 4.35 4.57 8.96 4.57 14.32 0 5.4-1.44 9.97-4.58 14.32l1.7 1.26c3.42-4.73 5-9.7 5-15.54 0-14.74-11.93-26.7-26.64-26.7z" stroke="#fff" stroke-opacity="0" stroke-width="2" fill="#fff"/><path d="M969.87 595.6v-3.88c0-.57-.5-1.06-1.06-1.06h-11.74v-6.4h11.75c.58 0 1.07-.5 1.07-1.06v-16c0-.58-.5-1.07-1.06-1.07h-25.6c-.58 0-1.07.5-1.07 1.06v16c0 .57.5 1.06 1.06 1.06h11.74v6.4H943.2c-.58 0-1.07.5-1.07 1.06v3.9c-1.83.4-3.2 1.73-3.63 3.6-.56 2.6 1.06 5.14 3.63 5.75 2.6.57 5.18-1.05 5.74-3.65.6-2.55-1.02-5.14-3.6-5.7v-2.8h10.67v4.37c-1.86.43-3.2 1.77-3.62 3.6-.6 2.6 1.02 5.15 3.62 5.75 2.57.6 5.14-1 5.74-3.6.6-2.6-1.02-5.15-3.62-5.76v-4.4h10.66v2.8c-1.83.4-3.17 1.75-3.6 3.62-.6 2.6 1.03 5.14 3.6 5.75 2.6.57 5.18-1.05 5.78-3.65.56-2.55-1.06-5.14-3.63-5.7zm-9.33-20.34l7.18-5.8v11.5zm-4.54.93l-9.8-7.92h19.6zm-4.6-1l-7.12 5.77v-11.5zm1.7 1.4l2.23 1.82c.4.32.95.32 1.34 0l2.15-1.8 6.86 5.53H946.2zm-7.24 23.67c0 1.46-1.2 2.68-2.67 2.68-1.46 0-2.65-1.22-2.65-2.68 0-1.46 1.2-2.68 2.64-2.68 1.46 0 2.66 1.2 2.66 2.67zm12.82 1.58c0 1.5-1.2 2.68-2.68 2.68-1.48 0-2.68-1.18-2.68-2.68 0-1.46 1.2-2.63 2.68-2.63 1.48 0 2.68 1.17 2.68 2.63zm10.13 1.1c-1.46 0-2.66-1.22-2.66-2.68 0-1.46 1.2-2.68 2.67-2.68 1.46 0 2.65 1.2 2.65 2.67 0 1.46-1.2 2.68-2.64 2.68z" stroke="#fff" stroke-opacity="0" stroke-width="2" fill="#fff"/><use xlink:href="#n" transform="matrix(1,0,0,1,886,629) translate(16.525 14.4)"/><use xlink:href="#o" transform="matrix(1,0,0,1,886,629) translate(87.475 14.4)"/><path d="M994.32 750h-76.64c-.88 0-1.68-.78-1.68-1.68v-37.3h3.44v35.57h73.12v-49.03h-46.48v-3.4h48.24c.88 0 1.68.78 1.68 1.67v52.48c0 .9-.8 1.68-1.68 1.68z" stroke="#fff" stroke-opacity="0" fill="#3b48cc"/><path d="M955.97 729.33c-.36 0-.73-.14-1.03-.38l-20.57-17.1 2.2-2.6 19.4 16.18 37.24-30.9 2.2 2.62-38.27 31.8c-.36.24-.73.38-1.16.38z" stroke="#fff" stroke-opacity="0" fill="#3b48cc"/><path d="M961.6 723.36l2.2-2.6 31.58 26.25-2.2 2.6-31.57-26.24z" stroke="#fff" stroke-opacity="0" stroke-width=".64" fill="#3b48cc"/><path d="M916.63 747l31.56-26.24 2.2 2.6-31.58 26.24-2.2-2.6z" stroke="#fff" stroke-opacity="0" stroke-width=".77" fill="#3b48cc"/><path d="M928.23 705.9c1.7-.02 3.1-.3 4.68-.9v2.94c-1.68.8-3.24 1.16-5.1 1.13-2.18.06-4.08-.4-5.97-1.5-1.74-1.05-2.95-2.42-3.76-4.25-.95-2.2-1.36-4.28-1.3-6.66-.06-3.17.55-5.9 1.96-8.72 1.23-2.53 2.87-4.36 5.22-5.88 2.23-1.42 4.5-2.1 7.17-2.06 2.2-.06 4.12.38 6.06 1.42 1.74.96 2.97 2.24 3.87 4.05.95 2.06 1.36 3.98 1.3 6.25.03 2.03-.28 3.78-1.02 5.67-.56 1.53-1.38 2.72-2.64 3.8-1.06.9-2.23 1.33-3.64 1.33-.74.03-1.4-.14-2.07-.46-.63-.32-1.1-.76-1.45-1.34-.56.6-1.12 1.02-1.86 1.37-.65.35-1.27.52-2 .55-1.3.06-2.42-.52-3.13-1.57-.85-1.46-1.18-2.88-1.08-4.54-.03-1.8.25-3.37.86-5.08.46-1.43 1.15-2.56 2.23-3.67.76-.82 1.7-1.23 2.8-1.3 1.28.04 2.36.65 3.05 1.7l.36-1.2h3.13l-1.4 10.4c-.03.3-.03.6 0 .92-.03.35.04.67.27.96.18.23.44.34.72.34.74-.08 1.36-.5 1.72-1.16.6-.93 1.02-1.8 1.25-2.9.32-1.3.48-2.45.45-3.8.18-2.4-.5-4.52-2.02-6.4-1.64-1.6-3.64-2.34-5.94-2.2-2.06 0-3.8.6-5.44 1.8-1.7 1.32-2.9 2.83-3.7 4.84-.95 2.27-1.36 4.33-1.3 6.8-.17 2.6.5 4.83 2.04 6.92 1.45 1.66 3.4 2.5 5.63 2.38zm1.02-6.33c.7-.03 1.28-.32 1.72-.85V698.14c-.03-.43-.03-.78 0-1.22l.92-6.77c-.47-.35-.96-.56-1.52-.58-.82 0-1.5.6-2.05 1.86-.64 1.57-.9 3.02-.82 4.74.1 2.26.62 3.4 1.75 3.4z" stroke="#fff" stroke-opacity="0" fill="#3b48cc"/><use xlink:href="#p" transform="matrix(1,0,0,1,886,759) translate(27.074999999999996 14.4)"/><use xlink:href="#q" transform="matrix(1,0,0,1,886,759) translate(68.07499999999999 14.4)"/><path d="M800 520h320v280H800z" fill-opacity="0"/><path d="M812 520h8m8 0h8m8 0h8m8 0h8m8 0h8m8 0h8m8 0h8m8 0h8m8 0h8m8 0h8m8 0h8m8 0h8m8 0h8m8 0h8m8 0h8m8 0h8m8 0h8m8 0h8m8 0h8m8 0h4v3.9m0 7.77v7.77m0 7.78V555m0 7.78v7.78m0 7.77v7.78m0 7.8v7.77m0 7.77v7.78m0 7.78v7.78m0 7.78v7.77m0 7.78v7.8m0 7.77v7.77m0 7.78V695m0 7.78v7.78m0 7.77v7.78m0 7.8v7.77m0 7.77v7.78m0 7.78v7.78m0 7.78v7.77m0 7.78v3.9h-4m-8 0h-8m-8 0h-8m-8 0h-8m-8 0h-8m-8 0h-8m-8 0h-8m-8 0h-8m-8 0h-8m-8 0h-8m-8 0h-8m-8 0h-8m-8 0h-8m-8 0h-8m-8 0h-8m-8 0h-8m-8 0h-8m-8 0h-8m-8 0h-8m-8 0h-8m-8 0h-4v-3.9m0-7.77v-7.77m0-7.78V765m0-7.78v-7.78m0-7.77v-7.78m0-7.8v-7.77m0-7.77v-7.78m0-7.78v-7.78m0-7.78v-7.77m0-7.78v-7.8m0-7.77v-7.77m0-7.78V625m0-7.78v-7.78m0-7.77v-7.78m0-7.8v-7.77m0-7.77v-7.78m0-7.78v-7.78m0-7.78v-7.77m0-7.78V520h4" stroke="#5a6c86" stroke-width="2" fill="none"/><path d="M520 521v194h361.5M520 521.03V520" stroke="#d86613" stroke-width="2" fill="none"/><path d="M896.76 715l-14.26 4.64v-9.28z" stroke="#d86613" stroke-width="2" fill="#d86613"/><use xlink:href="#r" transform="matrix(1,0,0,1,591.4375,689.4) translate(0 14.4)"/><use xlink:href="#s" transform="matrix(1,0,0,1,591.4375,689.4) translate(44 14.4)"/><path d="M1398.32 440h-76.64c-.88 0-1.68-.76-1.68-1.7v-5.12c0-18.18 11.92-33.43 29.52-37.7.48-.1.88-.05 1.28.17 5.92 3.2 12.48 3.2 18.4 0 .4-.22.8-.26 1.2-.17 17.68 4.27 29.6 19.52 29.6 37.7v5.13c0 .94-.8 1.7-1.68 1.7zm-74.88-3.43h73.12v-3.4c.08-16.35-10.56-30.07-26.32-34.17-3.36 1.65-6.48 2.4-10.24 2.4s-6.88-.7-10.24-2.4c-15.76 4.1-26.4 17.82-26.32 34.18z" stroke="#fff" stroke-opacity="0" fill="#232f3e"/><path d="M1360 401.3c-3.67 0-6.8-.78-10.03-2.56-9.95-5.58-13.5-18.2-7.93-28.17 5.58-9.95 18.17-13.5 28.1-7.93 6.72 3.76 10.56 10.33 10.56 18.05 0 7.76-3.93 14.36-10.74 18.04-3.22 1.73-6.32 2.56-9.95 2.56zm0-37.83c-6.6-.17-12.26 3.18-15.44 8.96-4.5 8.4-1.4 18.8 6.94 23.34 5.4 2.93 11.36 2.93 16.77 0 5.7-3.1 9-8.68 8.96-15.2-.04-9.5-7.76-17.14-17.22-17.1z" stroke="#fff" stroke-opacity="0" fill="#232f3e"/><use xlink:href="#t" transform="matrix(1,0,0,1,1290,449) translate(51.05 14.4)"/><path d="M1021 720h339V498.5M1021.03 720H1020" stroke="#3b48cc" stroke-width="2" fill="none"/><path d="M1360 483.24l4.64 14.26h-9.28z" stroke="#3b48cc" stroke-width="2" fill="#3b48cc"/><g><use xlink:href="#u" transform="matrix(1,0,0,1,1022.6640155682654,694.4) translate(0 14.4)"/><use xlink:href="#v" transform="matrix(1,0,0,1,1022.6640155682654,694.4) translate(44 14.4)"/></g><path d="M1360 339v-99h-221.5M1360 338.97V340" stroke="#d6242d" stroke-width="2" fill="none"/><path d="M1123.24 240l14.26-4.64v9.28z" stroke="#d6242d" stroke-width="2" fill="#d6242d"/><g><use xlink:href="#w" transform="matrix(1,0,0,1,1144.6643206340739,214.39999999999998) translate(0 14.4)"/><use xlink:href="#x" transform="matrix(1,0,0,1,1144.6643206340739,214.39999999999998) translate(110.95 14.4)"/></g><path d="M824 320h276v100H824z" fill="#fff" fill-opacity="0"/><path d="M825 320c0 .55-.45 1-1 1s-1-.45-1-1 .45-1 1-1 1 .45 1 1zm7.9 0c0 .55-.46 1-1 1-.57 0-1-.45-1-1s.43-1 1-1c.54 0 1 .45 1 1zm7.87 0c0 .55-.45 1-1 1s-1-.45-1-1 .45-1 1-1 1 .45 1 1zm7.9 0c0 .55-.46 1-1 1-.57 0-1-.45-1-1s.43-1 1-1c.54 0 1 .45 1 1zm7.87 0c0 .55-.44 1-1 1-.55 0-1-.45-1-1s.45-1 1-1c.56 0 1 .45 1 1zm7.9 0c0 .55-.46 1-1 1-.56 0-1-.45-1-1s.44-1 1-1c.54 0 1 .45 1 1zm7.87 0c0 .55-.43 1-1 1-.54 0-1-.45-1-1s.46-1 1-1c.57 0 1 .45 1 1zm7.9 0c0 .55-.45 1-1 1s-1-.45-1-1 .45-1 1-1 1 .45 1 1zm7.9 0c0 .55-.46 1-1 1-.57 0-1-.45-1-1s.43-1 1-1c.54 0 1 .45 1 1zm7.87 0c0 .55-.45 1-1 1s-1-.45-1-1 .45-1 1-1 1 .45 1 1zm7.9 0c0 .55-.46 1-1 1-.57 0-1-.45-1-1s.43-1 1-1c.54 0 1 .45 1 1zm7.87 0c0 .55-.44 1-1 1-.55 0-1-.45-1-1s.45-1 1-1c.56 0 1 .45 1 1zm7.9 0c0 .55-.46 1-1 1-.56 0-1-.45-1-1s.44-1 1-1c.54 0 1 .45 1 1zm7.87 0c0 .55-.43 1-1 1-.54 0-1-.45-1-1s.46-1 1-1c.57 0 1 .45 1 1zm7.9 0c0 .55-.45 1-1 1s-1-.45-1-1 .45-1 1-1 1 .45 1 1zm7.9 0c0 .55-.46 1-1 1-.57 0-1-.45-1-1s.43-1 1-1c.54 0 1 .45 1 1zm7.87 0c0 .55-.45 1-1 1s-1-.45-1-1 .45-1 1-1 1 .45 1 1zm7.9 0c0 .55-.46 1-1 1-.57 0-1-.45-1-1s.43-1 1-1c.54 0 1 .45 1 1zm7.87 0c0 .55-.44 1-1 1-.55 0-1-.45-1-1s.45-1 1-1c.56 0 1 .45 1 1zm7.9 0c0 .55-.46 1-1 1-.56 0-1-.45-1-1s.44-1 1-1c.54 0 1 .45 1 1zm7.87 0c0 .55-.43 1-1 1-.54 0-1-.45-1-1s.46-1 1-1c.57 0 1 .45 1 1zm7.9 0c0 .55-.45 1-1 1s-1-.45-1-1 .45-1 1-1 1 .45 1 1zm7.9 0c0 .55-.46 1-1 1-.57 0-1-.45-1-1s.43-1 1-1c.54 0 1 .45 1 1zm7.87 0c0 .55-.45 1-1 1s-1-.45-1-1 .45-1 1-1 1 .45 1 1zm7.9 0c0 .55-.46 1-1 1-.57 0-1-.45-1-1s.43-1 1-1c.54 0 1 .45 1 1zm7.87 0c0 .55-.44 1-1 1-.55 0-1-.45-1-1s.45-1 1-1c.56 0 1 .45 1 1zm7.9 0c0 .55-.46 1-1 1-.56 0-1-.45-1-1s.44-1 1-1c.54 0 1 .45 1 1zm7.87 0c0 .55-.43 1-1 1-.54 0-1-.45-1-1s.46-1 1-1c.57 0 1 .45 1 1zm7.9 0c0 .55-.45 1-1 1s-1-.45-1-1 .45-1 1-1 1 .45 1 1zm7.9 0c0 .55-.46 1-1 1-.57 0-1-.45-1-1s.43-1 1-1c.54 0 1 .45 1 1zm7.87 0c0 .55-.45 1-1 1s-1-.45-1-1 .45-1 1-1 1 .45 1 1zm7.9 0c0 .55-.46 1-1 1-.57 0-1-.45-1-1s.43-1 1-1c.54 0 1 .45 1 1zm7.87 0c0 .55-.44 1-1 1-.55 0-1-.45-1-1s.45-1 1-1c.56 0 1 .45 1 1zm7.9 0c0 .55-.46 1-1 1-.56 0-1-.45-1-1s.44-1 1-1c.54 0 1 .45 1 1zm7.87 0c0 .55-.43 1-1 1-.54 0-1-.45-1-1s.46-1 1-1c.57 0 1 .45 1 1zm7.9 0c0 .55-.45 1-1 1s-1-.45-1-1 .45-1 1-1 1 .45 1 1zm0 8.33c0 .56-.45 1-1 1s-1-.44-1-1c0-.55.45-1 1-1s1 .45 1 1zm0 8.34c0 .55-.45 1-1 1s-1-.45-1-1c0-.56.45-1 1-1s1 .44 1 1zm0 8.33c0 .55-.45 1-1 1s-1-.45-1-1 .45-1 1-1 1 .45 1 1zm0 8.33c0 .56-.45 1-1 1s-1-.44-1-1c0-.55.45-1 1-1s1 .45 1 1zm0 8.34c0 .55-.45 1-1 1s-1-.45-1-1c0-.56.45-1 1-1s1 .44 1 1zm0 8.33c0 .55-.45 1-1 1s-1-.45-1-1 .45-1 1-1 1 .45 1 1zm0 8.33c0 .56-.45 1-1 1s-1-.44-1-1c0-.55.45-1 1-1s1 .45 1 1zm0 8.34c0 .55-.45 1-1 1s-1-.45-1-1c0-.56.45-1 1-1s1 .44 1 1zm0 8.33c0 .55-.45 1-1 1s-1-.45-1-1 .45-1 1-1 1 .45 1 1zm0 8.33c0 .56-.45 1-1 1s-1-.44-1-1c0-.55.45-1 1-1s1 .45 1 1zm0 8.34c0 .55-.45 1-1 1s-1-.45-1-1c0-.56.45-1 1-1s1 .44 1 1zm0 8.33c0 .55-.45 1-1 1s-1-.45-1-1 .45-1 1-1 1 .45 1 1zm-7.9 0c0 .55-.43 1-1 1-.54 0-1-.45-1-1s.46-1 1-1c.57 0 1 .45 1 1zm-7.87 0c0 .55-.45 1-1 1s-1-.45-1-1 .45-1 1-1 1 .45 1 1zm-7.9 0c0 .55-.43 1-1 1-.54 0-1-.45-1-1s.46-1 1-1c.57 0 1 .45 1 1zm-7.87 0c0 .55-.45 1-1 1-.56 0-1-.45-1-1s.44-1 1-1c.55 0 1 .45 1 1zm-7.9 0c0 .55-.44 1-1 1-.54 0-1-.45-1-1s.46-1 1-1c.56 0 1 .45 1 1zm-7.87 0c0 .55-.46 1-1 1-.57 0-1-.45-1-1s.43-1 1-1c.54 0 1 .45 1 1zm-7.9 0c0 .55-.45 1-1 1s-1-.45-1-1 .45-1 1-1 1 .45 1 1zm-7.9 0c0 .55-.43 1-1 1-.54 0-1-.45-1-1s.46-1 1-1c.57 0 1 .45 1 1zm-7.87 0c0 .55-.45 1-1 1s-1-.45-1-1 .45-1 1-1 1 .45 1 1zm-7.9 0c0 .55-.43 1-1 1-.54 0-1-.45-1-1s.46-1 1-1c.57 0 1 .45 1 1zm-7.87 0c0 .55-.45 1-1 1-.56 0-1-.45-1-1s.44-1 1-1c.55 0 1 .45 1 1zm-7.9 0c0 .55-.44 1-1 1-.54 0-1-.45-1-1s.46-1 1-1c.56 0 1 .45 1 1zm-7.87 0c0 .55-.46 1-1 1-.57 0-1-.45-1-1s.43-1 1-1c.54 0 1 .45 1 1zm-7.9 0c0 .55-.45 1-1 1s-1-.45-1-1 .45-1 1-1 1 .45 1 1zm-7.9 0c0 .55-.43 1-1 1-.54 0-1-.45-1-1s.46-1 1-1c.57 0 1 .45 1 1zm-7.87 0c0 .55-.45 1-1 1s-1-.45-1-1 .45-1 1-1 1 .45 1 1zm-7.9 0c0 .55-.43 1-1 1-.54 0-1-.45-1-1s.46-1 1-1c.57 0 1 .45 1 1zm-7.87 0c0 .55-.45 1-1 1-.56 0-1-.45-1-1s.44-1 1-1c.55 0 1 .45 1 1zm-7.9 0c0 .55-.44 1-1 1-.54 0-1-.45-1-1s.46-1 1-1c.56 0 1 .45 1 1zm-7.87 0c0 .55-.46 1-1 1-.57 0-1-.45-1-1s.43-1 1-1c.54 0 1 .45 1 1zm-7.9 0c0 .55-.45 1-1 1s-1-.45-1-1 .45-1 1-1 1 .45 1 1zm-7.9 0c0 .55-.43 1-1 1-.54 0-1-.45-1-1s.46-1 1-1c.57 0 1 .45 1 1zm-7.87 0c0 .55-.45 1-1 1s-1-.45-1-1 .45-1 1-1 1 .45 1 1zm-7.9 0c0 .55-.43 1-1 1-.54 0-1-.45-1-1s.46-1 1-1c.57 0 1 .45 1 1zm-7.87 0c0 .55-.45 1-1 1-.56 0-1-.45-1-1s.44-1 1-1c.55 0 1 .45 1 1zm-7.9 0c0 .55-.44 1-1 1-.54 0-1-.45-1-1s.46-1 1-1c.56 0 1 .45 1 1zm-7.87 0c0 .55-.46 1-1 1-.57 0-1-.45-1-1s.43-1 1-1c.54 0 1 .45 1 1zm-7.9 0c0 .55-.45 1-1 1s-1-.45-1-1 .45-1 1-1 1 .45 1 1zm-7.9 0c0 .55-.43 1-1 1-.54 0-1-.45-1-1s.46-1 1-1c.57 0 1 .45 1 1zm-7.87 0c0 .55-.45 1-1 1s-1-.45-1-1 .45-1 1-1 1 .45 1 1zm-7.9 0c0 .55-.43 1-1 1-.54 0-1-.45-1-1s.46-1 1-1c.57 0 1 .45 1 1zm-7.87 0c0 .55-.45 1-1 1-.56 0-1-.45-1-1s.44-1 1-1c.55 0 1 .45 1 1zm-7.9 0c0 .55-.44 1-1 1-.54 0-1-.45-1-1s.46-1 1-1c.56 0 1 .45 1 1zm-7.87 0c0 .55-.46 1-1 1-.57 0-1-.45-1-1s.43-1 1-1c.54 0 1 .45 1 1zm-7.9 0c0 .55-.45 1-1 1s-1-.45-1-1 .45-1 1-1 1 .45 1 1zm0-8.33c0 .55-.45 1-1 1s-1-.45-1-1c0-.56.45-1 1-1s1 .44 1 1zm0-8.34c0 .56-.45 1-1 1s-1-.44-1-1c0-.55.45-1 1-1s1 .45 1 1zm0-8.33c0 .55-.45 1-1 1s-1-.45-1-1 .45-1 1-1 1 .45 1 1zm0-8.33c0 .55-.45 1-1 1s-1-.45-1-1c0-.56.45-1 1-1s1 .44 1 1zm0-8.34c0 .56-.45 1-1 1s-1-.44-1-1c0-.55.45-1 1-1s1 .45 1 1zm0-8.33c0 .55-.45 1-1 1s-1-.45-1-1 .45-1 1-1 1 .45 1 1zm0-8.33c0 .55-.45 1-1 1s-1-.45-1-1c0-.56.45-1 1-1s1 .44 1 1zm0-8.34c0 .56-.45 1-1 1s-1-.44-1-1c0-.55.45-1 1-1s1 .45 1 1zm0-8.33c0 .55-.45 1-1 1s-1-.45-1-1 .45-1 1-1 1 .45 1 1zm0-8.33c0 .55-.45 1-1 1s-1-.45-1-1c0-.56.45-1 1-1s1 .44 1 1zm0-8.34c0 .56-.45 1-1 1s-1-.44-1-1c0-.55.45-1 1-1s1 .45 1 1z"/><g><use xlink:href="#y" transform="matrix(1,0,0,1,829,325) translate(99.05 27)"/><use xlink:href="#z" transform="matrix(1,0,0,1,829,325) translate(133 48.6)"/><use xlink:href="#A" transform="matrix(1,0,0,1,829,325) translate(25.375 70.2)"/><use xlink:href="#B" transform="matrix(1,0,0,1,829,325) translate(92.325 70.2)"/><use xlink:href="#C" transform="matrix(1,0,0,1,829,325) translate(107.825 70.2)"/><use xlink:href="#D" transform="matrix(1,0,0,1,829,325) translate(181.325 70.2)"/></g><defs><path d="M141-36C126-15 110 5 73 4 37 3 15-17 15-53c-1-64 63-63 125-63 3-35-9-54-41-54-24 1-41 7-42 31l-33-3c5-37 33-52 76-52 45 0 72 20 72 64v82c-1 20 7 32 28 27v20c-31 9-61-2-59-35zM48-53c0 20 12 33 32 33 41-3 63-29 60-74-43 2-92-5-92 41" id="E"/><path d="M206 0h-36l-40-164L89 0H53L-1-190h32L70-26l43-164h34l41 164 42-164h31" id="F"/><path d="M135-143c-3-34-86-38-87 0 15 53 115 12 119 90S17 21 10-45l28-5c4 36 97 45 98 0-10-56-113-15-118-90-4-57 82-63 122-42 12 7 21 19 24 35" id="G"/><path d="M16-82v-28h88v28H16" id="H"/><path d="M143 0L79-87 56-68V0H24v-261h32v163l83-92h37l-77 82L181 0h-38" id="I"/><path d="M100-194c63 0 86 42 84 106H49c0 40 14 67 53 68 26 1 43-12 49-29l28 8c-11 28-37 45-77 45C44 4 14-33 15-96c1-61 26-98 85-98zm52 81c6-60-76-77-97-28-3 7-6 17-6 28h103" id="J"/><path d="M179-190L93 31C79 59 56 82 12 73V49c39 6 53-20 64-50L1-190h34L92-34l54-156h33" id="K"/><path d="M114-163C36-179 61-72 57 0H25l-1-190h30c1 12-1 29 2 39 6-27 23-49 58-41v29" id="L"/><path d="M100-194c62-1 85 37 85 99 1 63-27 99-86 99S16-35 15-95c0-66 28-99 85-99zM99-20c44 1 53-31 53-75 0-43-8-75-51-75s-53 32-53 75 10 74 51 75" id="M"/><path d="M59-47c-2 24 18 29 38 22v24C64 9 27 4 27-40v-127H5v-23h24l9-43h21v43h35v23H59v120" id="N"/><path d="M24-231v-30h32v30H24zM24 0v-190h32V0H24" id="O"/><path d="M117-194c89-4 53 116 60 194h-32v-121c0-31-8-49-39-48C34-167 62-67 57 0H25l-1-190h30c1 10-1 24 2 32 11-22 29-35 61-36" id="P"/><path d="M101-234c-31-9-42 10-38 44h38v23H63V0H32v-167H5v-23h27c-7-52 17-82 69-68v24" id="Q"/><path d="M96-169c-40 0-48 33-48 73s9 75 48 75c24 0 41-14 43-38l32 2c-6 37-31 61-74 61-59 0-76-41-82-99-10-93 101-131 147-64 4 7 5 14 7 22l-32 3c-4-21-16-35-41-35" id="R"/><g id="a"><use transform="matrix(0.05,0,0,0.05,0,0)" xlink:href="#E"/><use transform="matrix(0.05,0,0,0.05,10,0)" xlink:href="#F"/><use transform="matrix(0.05,0,0,0.05,22.950000000000003,0)" xlink:href="#G"/><use transform="matrix(0.05,0,0,0.05,31.950000000000003,0)" xlink:href="#H"/><use transform="matrix(0.05,0,0,0.05,37.900000000000006,0)" xlink:href="#I"/><use transform="matrix(0.05,0,0,0.05,46.900000000000006,0)" xlink:href="#J"/><use transform="matrix(0.05,0,0,0.05,56.900000000000006,0)" xlink:href="#K"/><use transform="matrix(0.05,0,0,0.05,65.9,0)" xlink:href="#L"/><use transform="matrix(0.05,0,0,0.05,71.85000000000001,0)" xlink:href="#M"/><use transform="matrix(0.05,0,0,0.05,81.85000000000001,0)" xlink:href="#N"/><use transform="matrix(0.05,0,0,0.05,86.85000000000001,0)" xlink:href="#E"/><use transform="matrix(0.05,0,0,0.05,96.85000000000001,0)" xlink:href="#N"/><use transform="matrix(0.05,0,0,0.05,101.85000000000001,0)" xlink:href="#O"/><use transform="matrix(0.05,0,0,0.05,105.80000000000001,0)" xlink:href="#M"/><use transform="matrix(0.05,0,0,0.05,115.80000000000001,0)" xlink:href="#P"/><use transform="matrix(0.05,0,0,0.05,125.80000000000001,0)" xlink:href="#H"/><use transform="matrix(0.05,0,0,0.05,131.75,0)" xlink:href="#J"/><use transform="matrix(0.05,0,0,0.05,141.75,0)" xlink:href="#P"/><use transform="matrix(0.05,0,0,0.05,151.75,0)" xlink:href="#Q"/><use transform="matrix(0.05,0,0,0.05,156.75,0)" xlink:href="#M"/><use transform="matrix(0.05,0,0,0.05,166.75,0)" xlink:href="#L"/><use transform="matrix(0.05,0,0,0.05,172.7,0)" xlink:href="#R"/><use transform="matrix(0.05,0,0,0.05,181.7,0)" xlink:href="#J"/><use transform="matrix(0.05,0,0,0.05,191.7,0)" xlink:href="#L"/></g><path d="M212-179c-10-28-35-45-73-45-59 0-87 40-87 99 0 60 29 101 89 101 43 0 62-24 78-52l27 14C228-24 195 4 139 4 59 4 22-46 18-125c-6-104 99-153 187-111 19 9 31 26 39 46" id="S"/><path d="M24 0v-261h32V0H24" id="T"/><path d="M84 4C-5 8 30-112 23-190h32v120c0 31 7 50 39 49 72-2 45-101 50-169h31l1 190h-30c-1-10 1-25-2-33-11 22-28 36-60 37" id="U"/><path d="M85-194c31 0 48 13 60 33l-1-100h32l1 261h-30c-2-10 0-23-3-31C134-8 116 4 85 4 32 4 16-35 15-94c0-66 23-100 70-100zm9 24c-40 0-46 34-46 75 0 40 6 74 45 74 42 0 51-32 51-76 0-42-9-74-50-73" id="V"/><path d="M266 0h-40l-56-210L115 0H75L2-248h35L96-30l15-64 43-154h32l59 218 59-218h35" id="W"/><path d="M106-169C34-169 62-67 57 0H25v-261h32l-1 103c12-21 28-36 61-36 89 0 53 116 60 194h-32v-121c2-32-8-49-39-48" id="X"/><path d="M30 0v-248h187v28H63v79h144v27H63v87h162V0H30" id="Y"/><path d="M108 0H70L1-190h34L89-25l56-165h34" id="Z"/><g id="b"><use transform="matrix(0.05,0,0,0.05,0,0)" xlink:href="#S"/><use transform="matrix(0.05,0,0,0.05,12.950000000000001,0)" xlink:href="#T"/><use transform="matrix(0.05,0,0,0.05,16.900000000000002,0)" xlink:href="#M"/><use transform="matrix(0.05,0,0,0.05,26.900000000000002,0)" xlink:href="#U"/><use transform="matrix(0.05,0,0,0.05,36.900000000000006,0)" xlink:href="#V"/><use transform="matrix(0.05,0,0,0.05,46.900000000000006,0)" xlink:href="#W"/><use transform="matrix(0.05,0,0,0.05,63.2,0)" xlink:href="#E"/><use transform="matrix(0.05,0,0,0.05,73.2,0)" xlink:href="#N"/><use transform="matrix(0.05,0,0,0.05,78.2,0)" xlink:href="#R"/><use transform="matrix(0.05,0,0,0.05,87.2,0)" xlink:href="#X"/><use transform="matrix(0.05,0,0,0.05,102.2,0)" xlink:href="#Y"/><use transform="matrix(0.05,0,0,0.05,114.2,0)" xlink:href="#Z"/><use transform="matrix(0.05,0,0,0.05,123.2,0)" xlink:href="#J"/><use transform="matrix(0.05,0,0,0.05,133.2,0)" xlink:href="#P"/><use transform="matrix(0.05,0,0,0.05,143.2,0)" xlink:href="#N"/></g><path fill="#cd2264" d="M85-194c31 0 48 13 60 33l-1-100h32l1 261h-30c-2-10 0-23-3-31C134-8 116 4 85 4 32 4 16-35 15-94c0-66 23-100 70-100zm9 24c-40 0-46 34-46 75 0 40 6 74 45 74 42 0 51-32 51-76 0-42-9-74-50-73" id="aa"/><path fill="#cd2264" d="M141-36C126-15 110 5 73 4 37 3 15-17 15-53c-1-64 63-63 125-63 3-35-9-54-41-54-24 1-41 7-42 31l-33-3c5-37 33-52 76-52 45 0 72 20 72 64v82c-1 20 7 32 28 27v20c-31 9-61-2-59-35zM48-53c0 20 12 33 32 33 41-3 63-29 60-74-43 2-92-5-92 41" id="ab"/><path fill="#cd2264" d="M24-231v-30h32v30H24zM24 0v-190h32V0H24" id="ac"/><path fill="#cd2264" d="M24 0v-261h32V0H24" id="ad"/><path fill="#cd2264" d="M179-190L93 31C79 59 56 82 12 73V49c39 6 53-20 64-50L1-190h34L92-34l54-156h33" id="ae"/><g id="c"><use transform="matrix(0.05,0,0,0.05,0,0)" xlink:href="#aa"/><use transform="matrix(0.05,0,0,0.05,10,0)" xlink:href="#ab"/><use transform="matrix(0.05,0,0,0.05,20,0)" xlink:href="#ac"/><use transform="matrix(0.05,0,0,0.05,23.95,0)" xlink:href="#ad"/><use transform="matrix(0.05,0,0,0.05,27.899999999999995,0)" xlink:href="#ae"/></g><path fill="#cd2264" d="M59-47c-2 24 18 29 38 22v24C64 9 27 4 27-40v-127H5v-23h24l9-43h21v43h35v23H59v120" id="af"/><path fill="#cd2264" d="M114-163C36-179 61-72 57 0H25l-1-190h30c1 12-1 29 2 39 6-27 23-49 58-41v29" id="ag"/><path fill="#cd2264" d="M177-190C167-65 218 103 67 71c-23-6-38-20-44-43l32-5c15 47 100 32 89-28v-30C133-14 115 1 83 1 29 1 15-40 15-95c0-56 16-97 71-98 29-1 48 16 59 35 1-10 0-23 2-32h30zM94-22c36 0 50-32 50-73 0-42-14-75-50-75-39 0-46 34-46 75s6 73 46 73" id="ah"/><path fill="#cd2264" d="M100-194c63 0 86 42 84 106H49c0 40 14 67 53 68 26 1 43-12 49-29l28 8c-11 28-37 45-77 45C44 4 14-33 15-96c1-61 26-98 85-98zm52 81c6-60-76-77-97-28-3 7-6 17-6 28h103" id="ai"/><g id="d"><use transform="matrix(0.05,0,0,0.05,0,0)" xlink:href="#af"/><use transform="matrix(0.05,0,0,0.05,5,0)" xlink:href="#ag"/><use transform="matrix(0.05,0,0,0.05,10.95,0)" xlink:href="#ac"/><use transform="matrix(0.05,0,0,0.05,14.899999999999999,0)" xlink:href="#ah"/><use transform="matrix(0.05,0,0,0.05,24.9,0)" xlink:href="#ah"/><use transform="matrix(0.05,0,0,0.05,34.9,0)" xlink:href="#ai"/><use transform="matrix(0.05,0,0,0.05,44.9,0)" xlink:href="#ag"/></g><g id="e"><use transform="matrix(0.05,0,0,0.05,0,0)" xlink:href="#G"/><use transform="matrix(0.05,0,0,0.05,9,0)" xlink:href="#N"/><use transform="matrix(0.05,0,0,0.05,14,0)" xlink:href="#E"/><use transform="matrix(0.05,0,0,0.05,24,0)" xlink:href="#N"/><use transform="matrix(0.05,0,0,0.05,29,0)" xlink:href="#O"/><use transform="matrix(0.05,0,0,0.05,32.95,0)" xlink:href="#R"/></g><path d="M33 0v-248h34V0H33" id="aj"/><path d="M205 0l-28-72H64L36 0H1l101-248h38L239 0h-34zm-38-99l-47-123c-12 45-31 82-46 123h93" id="ak"/><path d="M240 0l2-218c-23 76-54 145-80 218h-23L58-218 59 0H30v-248h44l77 211c21-75 51-140 76-211h43V0h-30" id="al"/><g id="f"><use transform="matrix(0.05,0,0,0.05,0,0)" xlink:href="#aj"/><use transform="matrix(0.05,0,0,0.05,5,0)" xlink:href="#ak"/><use transform="matrix(0.05,0,0,0.05,17,0)" xlink:href="#al"/></g><g id="g"><use transform="matrix(0.05,0,0,0.05,0,0)" xlink:href="#R"/><use transform="matrix(0.05,0,0,0.05,9,0)" xlink:href="#L"/><use transform="matrix(0.05,0,0,0.05,14.949999999999998,0)" xlink:href="#J"/><use transform="matrix(0.05,0,0,0.05,24.95,0)" xlink:href="#V"/><use transform="matrix(0.05,0,0,0.05,34.95,0)" xlink:href="#J"/><use transform="matrix(0.05,0,0,0.05,44.95,0)" xlink:href="#P"/><use transform="matrix(0.05,0,0,0.05,54.95,0)" xlink:href="#N"/><use transform="matrix(0.05,0,0,0.05,59.95,0)" xlink:href="#O"/><use transform="matrix(0.05,0,0,0.05,63.900000000000006,0)" xlink:href="#E"/><use transform="matrix(0.05,0,0,0.05,73.9,0)" xlink:href="#T"/><use transform="matrix(0.05,0,0,0.05,77.85000000000001,0)" xlink:href="#G"/></g><g id="h"><use transform="matrix(0.05,0,0,0.05,0,0)" xlink:href="#aj"/><use transform="matrix(0.05,0,0,0.05,5,0)" xlink:href="#ak"/><use transform="matrix(0.05,0,0,0.05,17,0)" xlink:href="#al"/></g><path d="M232-93c-1 65-40 97-104 97C67 4 28-28 28-90v-158h33c8 89-33 224 67 224 102 0 64-133 71-224h33v155" id="am"/><g id="i"><use transform="matrix(0.05,0,0,0.05,0,0)" xlink:href="#am"/><use transform="matrix(0.05,0,0,0.05,12.950000000000001,0)" xlink:href="#G"/><use transform="matrix(0.05,0,0,0.05,21.950000000000003,0)" xlink:href="#J"/><use transform="matrix(0.05,0,0,0.05,31.950000000000003,0)" xlink:href="#L"/></g><path fill="#d86613" d="M114-163C36-179 61-72 57 0H25l-1-190h30c1 12-1 29 2 39 6-27 23-49 58-41v29" id="an"/><path fill="#d86613" d="M100-194c63 0 86 42 84 106H49c0 40 14 67 53 68 26 1 43-12 49-29l28 8c-11 28-37 45-77 45C44 4 14-33 15-96c1-61 26-98 85-98zm52 81c6-60-76-77-97-28-3 7-6 17-6 28h103" id="ao"/><path fill="#d86613" d="M141-36C126-15 110 5 73 4 37 3 15-17 15-53c-1-64 63-63 125-63 3-35-9-54-41-54-24 1-41 7-42 31l-33-3c5-37 33-52 76-52 45 0 72 20 72 64v82c-1 20 7 32 28 27v20c-31 9-61-2-59-35zM48-53c0 20 12 33 32 33 41-3 63-29 60-74-43 2-92-5-92 41" id="ap"/><path fill="#d86613" d="M85-194c31 0 48 13 60 33l-1-100h32l1 261h-30c-2-10 0-23-3-31C134-8 116 4 85 4 32 4 16-35 15-94c0-66 23-100 70-100zm9 24c-40 0-46 34-46 75 0 40 6 74 45 74 42 0 51-32 51-76 0-42-9-74-50-73" id="aq"/><g id="j"><use transform="matrix(0.05,0,0,0.05,0,0)" xlink:href="#an"/><use transform="matrix(0.05,0,0,0.05,5.95,0)" xlink:href="#ao"/><use transform="matrix(0.05,0,0,0.05,15.949999999999998,0)" xlink:href="#ap"/><use transform="matrix(0.05,0,0,0.05,25.950000000000003,0)" xlink:href="#aq"/></g><path fill="#d86613" d="M96-169c-40 0-48 33-48 73s9 75 48 75c24 0 41-14 43-38l32 2c-6 37-31 61-74 61-59 0-76-41-82-99-10-93 101-131 147-64 4 7 5 14 7 22l-32 3c-4-21-16-35-41-35" id="ar"/><path fill="#d86613" d="M117-194c89-4 53 116 60 194h-32v-121c0-31-8-49-39-48C34-167 62-67 57 0H25l-1-190h30c1 10-1 24 2 32 11-22 29-35 61-36" id="as"/><path fill="#d86613" d="M59-47c-2 24 18 29 38 22v24C64 9 27 4 27-40v-127H5v-23h24l9-43h21v43h35v23H59v120" id="at"/><path fill="#d86613" d="M24-231v-30h32v30H24zM24 0v-190h32V0H24" id="au"/><path fill="#d86613" d="M24 0v-261h32V0H24" id="av"/><path fill="#d86613" d="M135-143c-3-34-86-38-87 0 15 53 115 12 119 90S17 21 10-45l28-5c4 36 97 45 98 0-10-56-113-15-118-90-4-57 82-63 122-42 12 7 21 19 24 35" id="aw"/><g id="k"><use transform="matrix(0.05,0,0,0.05,0,0)" xlink:href="#ar"/><use transform="matrix(0.05,0,0,0.05,9,0)" xlink:href="#an"/><use transform="matrix(0.05,0,0,0.05,14.949999999999998,0)" xlink:href="#ao"/><use transform="matrix(0.05,0,0,0.05,24.95,0)" xlink:href="#aq"/><use transform="matrix(0.05,0,0,0.05,34.95,0)" xlink:href="#ao"/><use transform="matrix(0.05,0,0,0.05,44.95,0)" xlink:href="#as"/><use transform="matrix(0.05,0,0,0.05,54.95,0)" xlink:href="#at"/><use transform="matrix(0.05,0,0,0.05,59.95,0)" xlink:href="#au"/><use transform="matrix(0.05,0,0,0.05,63.900000000000006,0)" xlink:href="#ap"/><use transform="matrix(0.05,0,0,0.05,73.9,0)" xlink:href="#av"/><use transform="matrix(0.05,0,0,0.05,77.85000000000001,0)" xlink:href="#aw"/></g><path fill="#d86613" d="M108 0H70L1-190h34L89-25l56-165h34" id="ax"/><g id="l"><use transform="matrix(0.05,0,0,0.05,0,0)" xlink:href="#aq"/><use transform="matrix(0.05,0,0,0.05,10,0)" xlink:href="#ao"/><use transform="matrix(0.05,0,0,0.05,20,0)" xlink:href="#ap"/><use transform="matrix(0.05,0,0,0.05,30,0)" xlink:href="#ar"/><use transform="matrix(0.05,0,0,0.05,39,0)" xlink:href="#at"/><use transform="matrix(0.05,0,0,0.05,44,0)" xlink:href="#au"/><use transform="matrix(0.05,0,0,0.05,47.95,0)" xlink:href="#ax"/><use transform="matrix(0.05,0,0,0.05,56.95,0)" xlink:href="#ap"/><use transform="matrix(0.05,0,0,0.05,66.95,0)" xlink:href="#at"/><use transform="matrix(0.05,0,0,0.05,71.95,0)" xlink:href="#ao"/></g><g id="m"><use transform="matrix(0.05,0,0,0.05,0,0)" xlink:href="#ar"/><use transform="matrix(0.05,0,0,0.05,9,0)" xlink:href="#an"/><use transform="matrix(0.05,0,0,0.05,14.949999999999998,0)" xlink:href="#ao"/><use transform="matrix(0.05,0,0,0.05,24.95,0)" xlink:href="#aq"/><use transform="matrix(0.05,0,0,0.05,34.95,0)" xlink:href="#ao"/><use transform="matrix(0.05,0,0,0.05,44.95,0)" xlink:href="#as"/><use transform="matrix(0.05,0,0,0.05,54.95,0)" xlink:href="#at"/><use transform="matrix(0.05,0,0,0.05,59.95,0)" xlink:href="#au"/><use transform="matrix(0.05,0,0,0.05,63.900000000000006,0)" xlink:href="#ap"/><use transform="matrix(0.05,0,0,0.05,73.9,0)" xlink:href="#av"/><use transform="matrix(0.05,0,0,0.05,77.85000000000001,0)" xlink:href="#aw"/></g><path d="M210-169c-67 3-38 105-44 169h-31v-121c0-29-5-50-35-48C34-165 62-65 56 0H25l-1-190h30c1 10-1 24 2 32 10-44 99-50 107 0 11-21 27-35 58-36 85-2 47 119 55 194h-31v-121c0-29-5-49-35-48" id="ay"/><path d="M9 0v-24l116-142H16v-24h144v24L44-24h123V0H9" id="az"/><g id="n"><use transform="matrix(0.05,0,0,0.05,0,0)" xlink:href="#ak"/><use transform="matrix(0.05,0,0,0.05,12,0)" xlink:href="#ay"/><use transform="matrix(0.05,0,0,0.05,26.950000000000003,0)" xlink:href="#E"/><use transform="matrix(0.05,0,0,0.05,36.95,0)" xlink:href="#az"/><use transform="matrix(0.05,0,0,0.05,45.95,0)" xlink:href="#M"/><use transform="matrix(0.05,0,0,0.05,55.95,0)" xlink:href="#P"/></g><path d="M185-189c-5-48-123-54-124 2 14 75 158 14 163 119 3 78-121 87-175 55-17-10-28-26-33-46l33-7c5 56 141 63 141-1 0-78-155-14-162-118-5-82 145-84 179-34 5 7 8 16 11 25" id="aA"/><g id="o"><use transform="matrix(0.05,0,0,0.05,0,0)" xlink:href="#aA"/><use transform="matrix(0.05,0,0,0.05,12,0)" xlink:href="#Y"/><use transform="matrix(0.05,0,0,0.05,24,0)" xlink:href="#aA"/></g><g id="p"><use transform="matrix(0.05,0,0,0.05,0,0)" xlink:href="#aA"/><use transform="matrix(0.05,0,0,0.05,12,0)" xlink:href="#Y"/><use transform="matrix(0.05,0,0,0.05,24,0)" xlink:href="#aA"/></g><g id="q"><use transform="matrix(0.05,0,0,0.05,0,0)" xlink:href="#Y"/><use transform="matrix(0.05,0,0,0.05,12,0)" xlink:href="#ay"/><use transform="matrix(0.05,0,0,0.05,26.950000000000003,0)" xlink:href="#E"/><use transform="matrix(0.05,0,0,0.05,36.95,0)" xlink:href="#O"/><use transform="matrix(0.05,0,0,0.05,40.900000000000006,0)" xlink:href="#T"/></g><g id="r"><use transform="matrix(0.05,0,0,0.05,0,0)" xlink:href="#aw"/><use transform="matrix(0.05,0,0,0.05,9,0)" xlink:href="#ao"/><use transform="matrix(0.05,0,0,0.05,19,0)" xlink:href="#as"/><use transform="matrix(0.05,0,0,0.05,29,0)" xlink:href="#aq"/></g><path fill="#d86613" d="M100-194c62-1 85 37 85 99 1 63-27 99-86 99S16-35 15-95c0-66 28-99 85-99zM99-20c44 1 53-31 53-75 0-43-8-75-51-75s-53 32-53 75 10 74 51 75" id="aB"/><path fill="#d86613" d="M101-234c-31-9-42 10-38 44h38v23H63V0H32v-167H5v-23h27c-7-52 17-82 69-68v24" id="aC"/><g id="s"><use transform="matrix(0.05,0,0,0.05,0,0)" xlink:href="#as"/><use transform="matrix(0.05,0,0,0.05,10,0)" xlink:href="#aB"/><use transform="matrix(0.05,0,0,0.05,20,0)" xlink:href="#at"/><use transform="matrix(0.05,0,0,0.05,25,0)" xlink:href="#au"/><use transform="matrix(0.05,0,0,0.05,28.950000000000003,0)" xlink:href="#aC"/><use transform="matrix(0.05,0,0,0.05,33.95,0)" xlink:href="#au"/><use transform="matrix(0.05,0,0,0.05,37.900000000000006,0)" xlink:href="#ar"/><use transform="matrix(0.05,0,0,0.05,46.900000000000006,0)" xlink:href="#ap"/><use transform="matrix(0.05,0,0,0.05,56.900000000000006,0)" xlink:href="#at"/><use transform="matrix(0.05,0,0,0.05,61.900000000000006,0)" xlink:href="#au"/><use transform="matrix(0.05,0,0,0.05,65.85000000000001,0)" xlink:href="#aB"/><use transform="matrix(0.05,0,0,0.05,75.85000000000001,0)" xlink:href="#as"/></g><g id="t"><use transform="matrix(0.05,0,0,0.05,0,0)" xlink:href="#am"/><use transform="matrix(0.05,0,0,0.05,12.950000000000001,0)" xlink:href="#G"/><use transform="matrix(0.05,0,0,0.05,21.950000000000003,0)" xlink:href="#J"/><use transform="matrix(0.05,0,0,0.05,31.950000000000003,0)" xlink:href="#L"/></g><path fill="#3b48cc" d="M135-143c-3-34-86-38-87 0 15 53 115 12 119 90S17 21 10-45l28-5c4 36 97 45 98 0-10-56-113-15-118-90-4-57 82-63 122-42 12 7 21 19 24 35" id="aD"/><path fill="#3b48cc" d="M100-194c63 0 86 42 84 106H49c0 40 14 67 53 68 26 1 43-12 49-29l28 8c-11 28-37 45-77 45C44 4 14-33 15-96c1-61 26-98 85-98zm52 81c6-60-76-77-97-28-3 7-6 17-6 28h103" id="aE"/><path fill="#3b48cc" d="M117-194c89-4 53 116 60 194h-32v-121c0-31-8-49-39-48C34-167 62-67 57 0H25l-1-190h30c1 10-1 24 2 32 11-22 29-35 61-36" id="aF"/><path fill="#3b48cc" d="M85-194c31 0 48 13 60 33l-1-100h32l1 261h-30c-2-10 0-23-3-31C134-8 116 4 85 4 32 4 16-35 15-94c0-66 23-100 70-100zm9 24c-40 0-46 34-46 75 0 40 6 74 45 74 42 0 51-32 51-76 0-42-9-74-50-73" id="aG"/><g id="u"><use transform="matrix(0.05,0,0,0.05,0,0)" xlink:href="#aD"/><use transform="matrix(0.05,0,0,0.05,9,0)" xlink:href="#aE"/><use transform="matrix(0.05,0,0,0.05,19,0)" xlink:href="#aF"/><use transform="matrix(0.05,0,0,0.05,29,0)" xlink:href="#aG"/></g><path fill="#3b48cc" d="M30 0v-248h187v28H63v79h144v27H63v87h162V0H30" id="aH"/><path fill="#3b48cc" d="M16-82v-28h88v28H16" id="aI"/><path fill="#3b48cc" d="M240 0l2-218c-23 76-54 145-80 218h-23L58-218 59 0H30v-248h44l77 211c21-75 51-140 76-211h43V0h-30" id="aJ"/><path fill="#3b48cc" d="M141-36C126-15 110 5 73 4 37 3 15-17 15-53c-1-64 63-63 125-63 3-35-9-54-41-54-24 1-41 7-42 31l-33-3c5-37 33-52 76-52 45 0 72 20 72 64v82c-1 20 7 32 28 27v20c-31 9-61-2-59-35zM48-53c0 20 12 33 32 33 41-3 63-29 60-74-43 2-92-5-92 41" id="aK"/><path fill="#3b48cc" d="M24-231v-30h32v30H24zM24 0v-190h32V0H24" id="aL"/><path fill="#3b48cc" d="M24 0v-261h32V0H24" id="aM"/><g id="v"><use transform="matrix(0.05,0,0,0.05,0,0)" xlink:href="#aH"/><use transform="matrix(0.05,0,0,0.05,12,0)" xlink:href="#aI"/><use transform="matrix(0.05,0,0,0.05,17.95,0)" xlink:href="#aJ"/><use transform="matrix(0.05,0,0,0.05,32.9,0)" xlink:href="#aK"/><use transform="matrix(0.05,0,0,0.05,42.9,0)" xlink:href="#aL"/><use transform="matrix(0.05,0,0,0.05,46.85,0)" xlink:href="#aM"/></g><path fill="#d6242d" d="M84 4C-5 8 30-112 23-190h32v120c0 31 7 50 39 49 72-2 45-101 50-169h31l1 190h-30c-1-10 1-25-2-33-11 22-28 36-60 37" id="aN"/><path fill="#d6242d" d="M115-194c55 1 70 41 70 98S169 2 115 4C84 4 66-9 55-30l1 105H24l-1-265h31l2 30c10-21 28-34 59-34zm-8 174c40 0 45-34 45-75s-6-73-45-74c-42 0-51 32-51 76 0 43 10 73 51 73" id="aO"/><path fill="#d6242d" d="M85-194c31 0 48 13 60 33l-1-100h32l1 261h-30c-2-10 0-23-3-31C134-8 116 4 85 4 32 4 16-35 15-94c0-66 23-100 70-100zm9 24c-40 0-46 34-46 75 0 40 6 74 45 74 42 0 51-32 51-76 0-42-9-74-50-73" id="aP"/><path fill="#d6242d" d="M141-36C126-15 110 5 73 4 37 3 15-17 15-53c-1-64 63-63 125-63 3-35-9-54-41-54-24 1-41 7-42 31l-33-3c5-37 33-52 76-52 45 0 72 20 72 64v82c-1 20 7 32 28 27v20c-31 9-61-2-59-35zM48-53c0 20 12 33 32 33 41-3 63-29 60-74-43 2-92-5-92 41" id="aQ"/><path fill="#d6242d" d="M59-47c-2 24 18 29 38 22v24C64 9 27 4 27-40v-127H5v-23h24l9-43h21v43h35v23H59v120" id="aR"/><path fill="#d6242d" d="M100-194c63 0 86 42 84 106H49c0 40 14 67 53 68 26 1 43-12 49-29l28 8c-11 28-37 45-77 45C44 4 14-33 15-96c1-61 26-98 85-98zm52 81c6-60-76-77-97-28-3 7-6 17-6 28h103" id="aS"/><path fill="#d6242d" d="M0 4l72-265h28L28 4H0" id="aT"/><path fill="#d6242d" d="M114-163C36-179 61-72 57 0H25l-1-190h30c1 12-1 29 2 39 6-27 23-49 58-41v29" id="aU"/><path fill="#d6242d" d="M100-194c62-1 85 37 85 99 1 63-27 99-86 99S16-35 15-95c0-66 28-99 85-99zM99-20c44 1 53-31 53-75 0-43-8-75-51-75s-53 32-53 75 10 74 51 75" id="aV"/><g id="w"><use transform="matrix(0.05,0,0,0.05,0,0)" xlink:href="#aN"/><use transform="matrix(0.05,0,0,0.05,10,0)" xlink:href="#aO"/><use transform="matrix(0.05,0,0,0.05,20,0)" xlink:href="#aP"/><use transform="matrix(0.05,0,0,0.05,30,0)" xlink:href="#aQ"/><use transform="matrix(0.05,0,0,0.05,40,0)" xlink:href="#aR"/><use transform="matrix(0.05,0,0,0.05,45,0)" xlink:href="#aS"/><use transform="matrix(0.05,0,0,0.05,55,0)" xlink:href="#aT"/><use transform="matrix(0.05,0,0,0.05,60,0)" xlink:href="#aU"/><use transform="matrix(0.05,0,0,0.05,65.95,0)" xlink:href="#aV"/><use transform="matrix(0.05,0,0,0.05,75.95,0)" xlink:href="#aR"/><use transform="matrix(0.05,0,0,0.05,80.95,0)" xlink:href="#aQ"/><use transform="matrix(0.05,0,0,0.05,90.95,0)" xlink:href="#aR"/><use transform="matrix(0.05,0,0,0.05,95.95,0)" xlink:href="#aS"/></g><path fill="#d6242d" d="M96-169c-40 0-48 33-48 73s9 75 48 75c24 0 41-14 43-38l32 2c-6 37-31 61-74 61-59 0-76-41-82-99-10-93 101-131 147-64 4 7 5 14 7 22l-32 3c-4-21-16-35-41-35" id="aW"/><path fill="#d6242d" d="M117-194c89-4 53 116 60 194h-32v-121c0-31-8-49-39-48C34-167 62-67 57 0H25l-1-190h30c1 10-1 24 2 32 11-22 29-35 61-36" id="aX"/><path fill="#d6242d" d="M24-231v-30h32v30H24zM24 0v-190h32V0H24" id="aY"/><path fill="#d6242d" d="M24 0v-261h32V0H24" id="aZ"/><path fill="#d6242d" d="M135-143c-3-34-86-38-87 0 15 53 115 12 119 90S17 21 10-45l28-5c4 36 97 45 98 0-10-56-113-15-118-90-4-57 82-63 122-42 12 7 21 19 24 35" id="ba"/><g id="x"><use transform="matrix(0.05,0,0,0.05,0,0)" xlink:href="#aW"/><use transform="matrix(0.05,0,0,0.05,9,0)" xlink:href="#aU"/><use transform="matrix(0.05,0,0,0.05,14.949999999999998,0)" xlink:href="#aS"/><use transform="matrix(0.05,0,0,0.05,24.95,0)" xlink:href="#aP"/><use transform="matrix(0.05,0,0,0.05,34.95,0)" xlink:href="#aS"/><use transform="matrix(0.05,0,0,0.05,44.95,0)" xlink:href="#aX"/><use transform="matrix(0.05,0,0,0.05,54.95,0)" xlink:href="#aR"/><use transform="matrix(0.05,0,0,0.05,59.95,0)" xlink:href="#aY"/><use transform="matrix(0.05,0,0,0.05,63.900000000000006,0)" xlink:href="#aQ"/><use transform="matrix(0.05,0,0,0.05,73.9,0)" xlink:href="#aZ"/><use transform="matrix(0.05,0,0,0.05,77.85000000000001,0)" xlink:href="#ba"/></g><path fill="#d6242d" d="M127-220V0H93v-220H8v-28h204v28h-85" id="bb"/><path fill="#d6242d" d="M177-190C167-65 218 103 67 71c-23-6-38-20-44-43l32-5c15 47 100 32 89-28v-30C133-14 115 1 83 1 29 1 15-40 15-95c0-56 16-97 71-98 29-1 48 16 59 35 1-10 0-23 2-32h30zM94-22c36 0 50-32 50-73 0-42-14-75-50-75-39 0-46 34-46 75s6 73 46 73" id="bc"/><path fill="#d6242d" d="M33-154v-36h34v36H33zM33 0v-36h34V0H33" id="bd"/><g id="y"><use transform="matrix(0.05,0,0,0.05,0,0)" xlink:href="#bb"/><use transform="matrix(0.05,0,0,0.05,8.950000000000001,0)" xlink:href="#aQ"/><use transform="matrix(0.05,0,0,0.05,18.950000000000003,0)" xlink:href="#bc"/><use transform="matrix(0.05,0,0,0.05,28.950000000000003,0)" xlink:href="#bc"/><use transform="matrix(0.05,0,0,0.05,38.95,0)" xlink:href="#aY"/><use transform="matrix(0.05,0,0,0.05,42.900000000000006,0)" xlink:href="#aX"/><use transform="matrix(0.05,0,0,0.05,52.900000000000006,0)" xlink:href="#bc"/><use transform="matrix(0.05,0,0,0.05,62.900000000000006,0)" xlink:href="#bd"/></g><path fill="#d6242d" d="M212-179c-10-28-35-45-73-45-59 0-87 40-87 99 0 60 29 101 89 101 43 0 62-24 78-52l27 14C228-24 195 4 139 4 59 4 22-46 18-125c-6-104 99-153 187-111 19 9 31 26 39 46" id="be"/><g id="A"><use transform="matrix(0.05,0,0,0.05,0,0)" xlink:href="#be"/><use transform="matrix(0.05,0,0,0.05,12.950000000000001,0)" xlink:href="#aV"/><use transform="matrix(0.05,0,0,0.05,22.950000000000003,0)" xlink:href="#aX"/><use transform="matrix(0.05,0,0,0.05,32.95,0)" xlink:href="#aR"/><use transform="matrix(0.05,0,0,0.05,37.95,0)" xlink:href="#aQ"/><use transform="matrix(0.05,0,0,0.05,47.95,0)" xlink:href="#aW"/><use transform="matrix(0.05,0,0,0.05,56.95,0)" xlink:href="#aR"/></g><path fill="#d6242d" d="M18-150v-26h174v26H18zm0 90v-26h174v26H18" id="bf"/><use transform="matrix(0.05,0,0,0.05,0,0)" xlink:href="#bf" id="B"/><path fill="#d6242d" d="M18-100v-36l175-74v27L42-118l151 64v27" id="bg"/><g id="C"><use transform="matrix(0.05,0,0,0.05,0,0)" xlink:href="#bg"/><use transform="matrix(0.05,0,0,0.05,10.5,0)" xlink:href="#aW"/><use transform="matrix(0.05,0,0,0.05,19.5,0)" xlink:href="#aV"/><use transform="matrix(0.05,0,0,0.05,29.5,0)" xlink:href="#aX"/><use transform="matrix(0.05,0,0,0.05,39.5,0)" xlink:href="#aR"/><use transform="matrix(0.05,0,0,0.05,44.5,0)" xlink:href="#aQ"/><use transform="matrix(0.05,0,0,0.05,54.5,0)" xlink:href="#aW"/><use transform="matrix(0.05,0,0,0.05,63.5,0)" xlink:href="#aR"/></g><path fill="#d6242d" d="M16-82v-28h88v28H16" id="bh"/><path fill="#d6242d" d="M210-169c-67 3-38 105-44 169h-31v-121c0-29-5-50-35-48C34-165 62-65 56 0H25l-1-190h30c1 10-1 24 2 32 10-44 99-50 107 0 11-21 27-35 58-36 85-2 47 119 55 194h-31v-121c0-29-5-49-35-48" id="bi"/><path fill="#d6242d" d="M18-27v-27l151-64-151-65v-27l175 74v36" id="bj"/><g id="D"><use transform="matrix(0.05,0,0,0.05,0,0)" xlink:href="#aS"/><use transform="matrix(0.05,0,0,0.05,10,0)" xlink:href="#bh"/><use transform="matrix(0.05,0,0,0.05,15.949999999999998,0)" xlink:href="#bi"/><use transform="matrix(0.05,0,0,0.05,30.899999999999995,0)" xlink:href="#aQ"/><use transform="matrix(0.05,0,0,0.05,40.9,0)" xlink:href="#aY"/><use transform="matrix(0.05,0,0,0.05,44.85,0)" xlink:href="#aZ"/><use transform="matrix(0.05,0,0,0.05,48.800000000000004,0)" xlink:href="#bj"/></g></defs></g></svg>